<svg width="360" height="112" viewBox="0 0 360 112" fill="none" xmlns="http://www.w3.org/2000/svg">
<path fill-rule="evenodd" clip-rule="evenodd" d="M67.3907 8.0678L64.5433 24.2034L64.0687 23.7288L61.2212 6.64407H56.95L63.1195 0L67.3907 8.0678ZM57.8977 52.2043L51.2536 19.4586L58.8469 22.7806L62.1689 29.8993L57.8977 52.2043ZM47.4572 24.2058L41.7622 9.01941L34.169 3.32449L32.2707 12.816L36.0673 10.4431L46.9826 24.2058H47.4572ZM56.0002 51.7285L33.6951 26.576L41.7629 25.6268L48.407 29.898L56.0002 51.7285ZM32.7464 32.7485L20.4074 22.3078L10.9159 21.3586L13.7633 30.3756L16.1362 26.579L32.2718 32.7485H32.7464ZM54.1015 52.2024L22.3049 41.7618L28.4744 36.5414L36.5422 37.4906L54.1015 52.2024ZM24.2034 47.4572L8.0678 44.6097L0 48.4063L6.64407 55.0504V50.3047L23.7288 47.4572H24.2034ZM52.2043 53.6273L19.4586 60.7459L22.7806 52.6781L29.8993 49.3561L52.2043 53.6273ZM24.202 64.067L9.01559 69.762L3.32068 77.3552L12.8122 79.7281L10.4393 75.4569L24.202 64.5416V64.067ZM51.7285 55.5256L26.576 77.8307L25.6268 69.7629L29.898 63.5934L51.7285 55.5256ZM32.7459 79.2536L22.3053 91.118L21.3561 100.61L30.3731 97.7621L26.5764 95.3892L32.7459 79.2536ZM52.2024 57.8988L41.7618 89.6954L36.5414 83.0513L37.4906 75.4581L52.2024 57.8988ZM47.4572 87.7963L44.6097 103.457L48.4063 112L55.0504 104.881H50.3047L47.4572 87.7963ZM53.6273 59.3207L60.7459 92.0664L52.6781 88.7444L49.3561 82.1003L53.6273 59.3207ZM64.067 87.7963L69.762 102.983L77.3552 108.203L79.7281 98.7116L75.4569 101.084L64.5416 87.7963H64.067ZM55.5256 60.2707L77.8307 84.9487L69.7629 85.8978L63.5934 81.6266L55.5256 60.2707ZM79.2536 79.2538L91.118 89.6945L100.61 90.1691L97.7621 81.1521L95.3892 84.9487L79.2536 78.7793V79.2538ZM57.8988 59.3207L89.6954 69.7614L83.0513 74.9817L75.4581 74.5071L57.8988 59.3207ZM87.7963 64.5433L103.457 67.3907L112 63.1195L104.881 56.95V61.2212L87.7963 64.0687V64.5433ZM59.3207 57.8977L92.0664 51.2536L88.7444 58.8469L82.1003 62.1689L59.3207 57.8977ZM87.7963 47.4572L102.983 41.7622L108.203 34.169L98.7116 32.2707L101.084 36.0673L87.7963 46.9826V47.4572ZM60.2707 56.0002L84.9487 33.6951L85.8978 41.7629L81.6266 48.407L60.2707 56.0002ZM79.2538 32.7477L89.6945 20.4087L90.1691 10.9172L81.1521 13.7646L84.9487 16.1375L78.7793 32.2731L79.2538 32.7477ZM59.3207 54.104L69.7614 22.3074L74.9817 28.4769L74.5071 36.5447L59.3207 54.104Z" fill="url(#paint0_radial_813_4841)"/>
<path d="M286.879 98.3267V12.4531H320.132C340.596 12.4531 358.379 17.2036 358.379 36.449C358.379 50.5785 346.929 54.4764 336.576 55.6944V60.5667H349.122C355.821 60.5667 359.476 64.2209 359.476 70.9202V98.3267H339.987V68.1187H306.368V98.3267H286.879ZM306.368 51.0658H320.132C331.704 51.0658 338.89 51.0658 338.89 40.3468C338.89 29.506 331.704 29.506 320.132 29.506H306.368V51.0658Z" fill="#636363"/>
<path d="M226.34 99.5447C219.64 99.6665 215.864 96.0124 215.864 89.313V12.4531H235.353V82.4918L277.133 81.2738V98.3267L226.34 99.5447Z" fill="#636363"/>
<path d="M167.817 12.4531C189.499 12.4531 206.064 16.5945 206.064 42.5393C206.064 68.6059 189.499 72.7473 167.817 72.7473H156.489V98.3267H137V12.4531H167.817ZM169.035 55.6944C180.607 55.6944 186.575 54.4764 186.575 42.5393C186.575 30.7241 180.607 29.506 169.035 29.506H156.489V55.6944H169.035Z" fill="#636363"/>
<defs>
<radialGradient id="paint0_radial_813_4841" cx="0" cy="0" r="1" gradientUnits="userSpaceOnUse" gradientTransform="translate(55.9999 55.9999) rotate(-141.937) scale(56.9614)">
<stop offset="0.177785" stop-color="#FFEE00"/>
<stop offset="0.564055" stop-color="#4DFF00"/>
</radialGradient>
</defs>
</svg>
